<mxfile host="app.diagrams.net" modified="2023-11-04T12:30:09.681Z" agent="Mozilla/5.0 (Windows NT 10.0; Win64; x64) AppleWebKit/537.36 (KHTML, like Gecko) Chrome/118.0.0.0 Safari/537.36" etag="C0mBBMz98jZ15Wn_ZhV4" version="22.0.8" type="github">
  <diagram name="Page-1" id="6EWGwYyLiAGg1I-MPzpc">
    <mxGraphModel dx="1105" dy="549" grid="1" gridSize="10" guides="1" tooltips="1" connect="1" arrows="1" fold="1" page="1" pageScale="1" pageWidth="827" pageHeight="1169" background="#CCFFFF" math="0" shadow="1">
      <root>
        <mxCell id="0" />
        <mxCell id="1" parent="0" />
        <mxCell id="BL32pnbhM_nZfT4XRRgJ-2" value="" style="dashed=0;outlineConnect=0;html=1;align=center;labelPosition=center;verticalLabelPosition=bottom;verticalAlign=top;shape=mxgraph.webicons.google_drive;gradientColor=#FFFF66;shadow=1;perimeterSpacing=9;" vertex="1" parent="1">
          <mxGeometry x="30" y="650" width="80" height="80" as="geometry" />
        </mxCell>
        <mxCell id="BL32pnbhM_nZfT4XRRgJ-21" value="&lt;blockquote style=&quot;margin: 0 0 0 40px; border: none; padding: 0px;&quot;&gt;&lt;/blockquote&gt;&lt;ul style=&quot;line-height: 120%; font-size: 16px;&quot;&gt;&lt;li style=&quot;&quot;&gt;&lt;b style=&quot;&quot;&gt;&lt;font style=&quot;font-size: 18px;&quot; face=&quot;Times New Roman&quot; color=&quot;#000000&quot;&gt;Annotation&lt;/font&gt;&lt;/b&gt;&lt;/li&gt;&lt;li style=&quot;&quot;&gt;&lt;b&gt;&lt;font style=&quot;font-size: 18px;&quot; face=&quot;Times New Roman&quot; color=&quot;#000000&quot;&gt;Augmentation&lt;/font&gt;&lt;/b&gt;&lt;/li&gt;&lt;ul&gt;&lt;li style=&quot;&quot;&gt;&lt;b style=&quot;&quot;&gt;&lt;font style=&quot;font-size: 16px;&quot; face=&quot;Times New Roman&quot; color=&quot;#000000&quot;&gt;Rotation&lt;/font&gt;&lt;/b&gt;&lt;/li&gt;&lt;li style=&quot;&quot;&gt;&lt;b style=&quot;&quot;&gt;&lt;font style=&quot;font-size: 16px;&quot; face=&quot;Times New Roman&quot; color=&quot;#000000&quot;&gt;Flipping&lt;/font&gt;&lt;/b&gt;&lt;/li&gt;&lt;li style=&quot;&quot;&gt;&lt;b style=&quot;&quot;&gt;&lt;font style=&quot;font-size: 16px;&quot; face=&quot;Times New Roman&quot; color=&quot;#000000&quot;&gt;Scaling&lt;/font&gt;&lt;/b&gt;&lt;/li&gt;&lt;li style=&quot;&quot;&gt;&lt;b style=&quot;&quot;&gt;&lt;font style=&quot;font-size: 16px;&quot; face=&quot;Times New Roman&quot; color=&quot;#000000&quot;&gt;Translation&lt;/font&gt;&lt;/b&gt;&lt;/li&gt;&lt;li style=&quot;&quot;&gt;&lt;b style=&quot;&quot;&gt;&lt;font style=&quot;font-size: 16px;&quot; face=&quot;Times New Roman&quot; color=&quot;#000000&quot;&gt;Stretching&amp;nbsp;&lt;/font&gt;&lt;/b&gt;&lt;/li&gt;&lt;/ul&gt;&lt;li style=&quot;&quot;&gt;&lt;b style=&quot;&quot;&gt;&lt;font style=&quot;font-size: 18px;&quot; face=&quot;Times New Roman&quot; color=&quot;#000000&quot;&gt;Normalization&lt;/font&gt;&lt;/b&gt;&lt;/li&gt;&lt;li style=&quot;&quot;&gt;&lt;font style=&quot;font-size: 18px;&quot; face=&quot;Times New Roman&quot; color=&quot;#000000&quot;&gt;&lt;b&gt;Noise Injection&amp;nbsp;&lt;/b&gt;&lt;/font&gt;&lt;/li&gt;&lt;/ul&gt;&lt;blockquote style=&quot;margin: 0 0 0 40px; border: none; padding: 0px;&quot;&gt;&lt;/blockquote&gt;" style="strokeWidth=2;shadow=0;align=right;html=1;shape=mxgraph.mockup.text.bulletedList;textColor=#666666;mainText=,,,,;textSize=17;bulletStyle=none;strokeColor=#36393d;fillColor=#ffcc99;align=left;verticalAlign=top;fontSize=17;labelBorderColor=none;aspect=fixed;rotation=0;flipV=1;flipH=1;" vertex="1" parent="1">
          <mxGeometry x="138" y="840" width="212.99" height="230" as="geometry" />
        </mxCell>
        <mxCell id="BL32pnbhM_nZfT4XRRgJ-5" value="" style="shape=image;imageAspect=0;aspect=fixed;verticalLabelPosition=bottom;verticalAlign=top;image=data:image/png,iVBORw0KGgoAAAANSUhEUgAAAMgAAADICAYAAACtWK6eAAAABHNCSVQICAgIfAhkiAAAAAlwSFlzAAALEwAACxMBAJqcGAAAC+lJREFUeJzt3X/M3VQdx/H3YG5zw0h06kTJZrI4FINT/iFxyN0fxPkrDB06TYSh8S8jTmUwReQSEIc/gZj4FzhADAaEgYJgiN4FiEucZA5liyI8yCAPbjHgj7nJfvjHeZrnyV3P97a9bc9p+3klDUlv23PW7UNPz+39FkRERERERERERGI3K3QHpBHWTS3DdgDra+1JzWaH7oA0whLgrNCdCOG40B0QiZmuIBKL1VNLCLuBTWkfKCASi+XABYHa3oonIBpiiRh0BZEsBp71EzX2IQgFRLIY4A9Jq2mIJWKwriCrgEV1dQR4BHgyZf1SYEXK+n8Dd3qOtQY4IUcbEq8XgAdKOtZy4J0lHYsBcLTGZZ2nH+s8208YfZ/I2YaE1yf972wQsg0NsUQMCoiIQQERMSggIoYi34O8BLxYdkdws1K+9c+krN9jHMv3ma8NaaYlnvWTwIEyGigSkOtwswF1uRP/dK5P2rSwtM/TnvUrKWn2S0MsEYMCImJQQEQMCoiIQQERMZT5uPsZwO0lHk/aaS2wraRjvcWzfrKk45cakHnA4hKPJ+00r8RjTZR4rFQaYokYFBARgwIiYlBARAx1FW24sKZ2JB4/Kuk4pwCbSzrW8rw71BWQzTW1I/EoKyBvIFxBOQ2xRCwKiIhBARExKCAihtClR+suTiflmqS8om47gJtLOlZeu30fhA7IRjr65qKW2Ep5AdkytURFQywRg3UF2eFZP1FBP0SiZAWk1W8vFclCQywRQ+ibdJ+qitNJMScCrw7diRBiDUjdxenE1geuCN2JEDTEEjEoICIGBUTEEOs9SEizgFOnloW4V3Q9DzwG/C1gvyQABWTa63Df/awDTvJssxP4IXAT8L96uiUhaYjlfBr4C/BV/OEAOA0XkMdxhfKk5boekFnA9cCN5JvnfyvuQb2PV9EpiUfXA/IN4KKC+84BbsM9si8t1eWAnI173H4cxwO3Aq8fvzsSo64G5DjgBtwQy+cg8ATwV9xMls9C4MryuiYx6WpAPoirt5TmIHAJ7h/+qcBSXFHuW4zjXQi8tswOShy6Os3ru7k+AnwEuH9o/bO42kx7gS+n7DcXOAc3/SvFrJ5aotLVgLzHs/42jg3HTF8B1pD+mocVKCDjWE7AAnE+XRxiHY//PSY/HbHvy8Bdns+WFu6RRKuLAVmA/+b8+Qz77/GsP6FYdyRmXQzIf/HPSr0pw/4ne9b/q1h3JGZdDMjL+B86XDti3znARz2fPVmwPx/GfTMvEerqTfqjpN+HfBJ3H/Jzz37X4r+CPFygH+dOtbcXWAn8ucAx2iJk4bhFwPuqbqSHG7qkLT4Dz/b96roJuP9r+/p6EDdb9aoZ2y8BfmLscwB4Tc4+nIt7Ijg5xnPEeyXpk/7nHhj7+M5Vr7puFtbD098uDrEA7gN2eT6bA1wD7MN9k/4U8DTwCeN4NwL/yNF+cuV4xYx1JwG/Id6QdFJXA3KE0Q8pzgHehv9d3Im95CtokBaOhEISma4GBOAh3JViHIdw9y37Mm5vhSOhkESkywEBuAz3e5AiDuLC8VDG7bOEI6GQRKKrs1gzrcfNoHwfVyAti13A+cD2jNvnCUciCUlXZrdOJPv5L+pFAhYk7NGcWaw0C4Grcd+U+/4cvwc+S75/6MOzVXmXGGa3+lQ/i+Vro8yl72m759tHV5Bp+4CvAZcDbwfegSvkcBgXmsdw/1jzyHLl+A5wOu5KkaZrV5KoKCDHOgr8aWoZR5ZwbMJ95zIf+AUKSXS6fpNelTzhANgPfAgXAh/duAeggNjmFtgnbzgSCkmEFBC/BcCDwLdz7FM0HAmFJDK6B0m3APc4yllMv2R0w4h9xg1HIglJ1+5JrgM2V9xG0HfO9Gj2NG9iAen9sq4kWaZyv5mzH/OBX484Zl1TwH1P+wNjn7zTvCH10MOKmcy8cgy7mPSQlHXlGKbhVgQUkGlWOBLDIakqHAmFJDAFxMkSjkQSkqrDkVBIAlJA8oUjcTHwM6oPRyIJycDYRiGpQNdnsYqEI2GVLS0zHIn9uIqQ9+G/0W3y7FYdheO2TC2ZdTkgWcIxifsp7Zwcx60iHIk2h6SOwnET5AxIV4dYWcKxBzgTOA9XCSWLKsORSEIyMLbRcKskXQxI1nCsxJXyuRdXbnRUSLZRfTgSCklNuhaQvOFIZAnJGeT/MnAcCkkNuhSQouFIZAnJRtwwqy4KScW6cpM+bjgS9+LuSe7AP8V76dR/x317VVZtuXGvo3DcjoqPb+oR57NYvmerZi7Pkq86+zmMfvbq2lJ6n918XAiqeHar7znewNhHz2I1QFlXjmH3MHp26xLgWzmOOa7kSrLV2EbDrZzaHJCqwpG4B/gYdkg2UH9IPoBCUpq2BqTqcCS2kC0knx+jjbwUkhK1MSB1hSMxKiTbca+KrpNCUpK2zWLVHY7EFtyLQYef7t2Oex97iF+yJSG5H//5iGl2S4XjUgw82/cLtF/FbFVeM39Z+Duq/wvPYj6jz8uo2a2+Z7+BsU/eWSxfG2UufU/bPd8+bRlihbpyDLsbdyX5LeGuHMM03BpDGwISSzgSd+NeMx1DOBIKSUFND0hs4UhYw8pQFJICmhyQWMMRM32ZmFNTA6JwFPcfFJLMypzm3cbo15UNWwvMS1lvjd8VjvElIbHO48wp4Dq0vnBcHWKYym2TLOfzOfxv+B0Yx27Fw4oB+5SbwlGNLOfVtwyM47YiIE25B9GwqjpZ7kk6qwkBUTiqp5B4xB4QhaM+CkmK2VQ/czCO04B3jdjmKdy7BUPaBOxOWV9HMbSy7Q3UbrSF4y6opi+1ee/UEtJm0gNSRzG0tlDhOJGmUUBEDAqIiEEBETFYz2I9iKtuLtPy3kTWUQwtpLSJiaKiLRzXpEcCQtO5yq5J56pHwx81EQlCARExKCAiBgVExNC2wnGxqaMYWltEWThOAanWeuCK0J1oiDrO1ZXkLEqoIZaIQQERMSggIgYFRMSggIgYQsxiPQK82fPZ48AXac/vy+sohtY0vgdgoy0cV/dDZRNGm0eBA8DVwCsran8cTXoAT7Lr0aCHFecClwG7cC+kEQkmxoAkFgN34V4hpmqJEkTMAUm8H/gj8Q67pMWaEBDQsEsCielZrCOMDmwy7PolcBHNne06Bdjo+WydZ/3Gqf2kuNyF4yCeWawvANcDh4w+hZ7tKutc9Yxj+QyMfbRkW/qec9vz7RPTEOslXEjejfuuZJSZw66mlfeUhogpIImdwJm4CiIvZNh+Me7NsprtktLFGJDELcAy4AbgcIbtk9muq9Bsl5Qk5oDA9LDrdODRDNvPxVV6fwINu6QEMc1iWf6AG3ZdhbvvGGUJbth1E/CZ6rpVqwdwExxSXO7CcU0JyHzgcuBLGbc/BPyAdv3cdVPoDnRREwKyBvgecHLG7R8GPod7MlhkLDHfgywDfgXcQbZwTAKfwr1MR+GQUsQYkAW44cRO4OwM2x/C/ZZgGfDjCvslHRTbEOs84LtoOCWRiCkg1wBvzLjtJLCBbl0xFgHzQnei4RpdOC5LOA7jZqe+Dvyz2u5E53bs12HLaLkLx8UUkFE0nJLaxXiTPmwSOB/NTkkAMQfkMO7x92XArYH7Ih0V6xBLwymJQmxXEA2nJCohriArjHb/DuyvsS9NshZN844rd+G4EAHZE6DNNtAruQOIbYglEhUFRMSggIgYFBARQ6zfg8ixVDhufLkLxykgzbEKPaw4rglyBkRDLBGDAiJiUEBEDAqIiMG6SV+FK8AmcVDhuPGVWjju0jE6IuVT4bgANMQSMSggIgYFRMSggIgYZgPPhO5ECxyooY22FI6bpJ7zVYrZaCq3KdpSOG4l7oWkjaAhlohBARExKCAiBgVExKCAiBj0i8LmaEvhuEbV91JAmqNR/7DaQkMsEYMCImJQQEQMCoiIoU036Zs96zcBu1PWr55ahu3G/+u9vG0U4WtDqrModAfqcNSz9Dzb9z3bD0psw6dnHEtLRIuGWCIGBUTEoICIGBQQEUObZrFu9qz3PaKxw7OPNRuVtw2fSeNYIiIiIiIiIiIiIiIiIiIS0v8BDpv+G6giHPcAAAAASUVORK5CYII=;strokeColor=#FFFF66;imageBackground=#CCFFFF;imageBorder=default;" vertex="1" parent="1">
          <mxGeometry x="30" y="500" width="90" height="90" as="geometry" />
        </mxCell>
        <mxCell id="BL32pnbhM_nZfT4XRRgJ-7" value="" style="endArrow=classic;html=1;rounded=1;fillColor=#1ba1e2;strokeColor=#006EAF;strokeWidth=3;" edge="1" parent="1">
          <mxGeometry width="50" height="50" relative="1" as="geometry">
            <mxPoint x="74.47" y="600" as="sourcePoint" />
            <mxPoint x="74.47" y="640" as="targetPoint" />
          </mxGeometry>
        </mxCell>
        <mxCell id="BL32pnbhM_nZfT4XRRgJ-8" value="&lt;b&gt;Unstructured Data (Videos or Images)&lt;/b&gt;" style="text;html=1;strokeColor=none;fillColor=#FFFF99;align=center;verticalAlign=middle;whiteSpace=wrap;rounded=0;" vertex="1" parent="1">
          <mxGeometry x="10" y="450" width="130" height="40" as="geometry" />
        </mxCell>
        <mxCell id="BL32pnbhM_nZfT4XRRgJ-9" value="&lt;b&gt;Google Drive&lt;/b&gt;" style="text;html=1;strokeColor=none;fillColor=#FFFF66;align=center;verticalAlign=middle;whiteSpace=wrap;rounded=0;" vertex="1" parent="1">
          <mxGeometry x="40" y="740" width="60" height="30" as="geometry" />
        </mxCell>
        <mxCell id="BL32pnbhM_nZfT4XRRgJ-12" value="" style="sketch=0;outlineConnect=0;fontColor=#232F3E;gradientColor=default;fillColor=#232F3D;strokeColor=none;dashed=0;verticalLabelPosition=bottom;verticalAlign=top;align=center;html=1;fontSize=12;fontStyle=0;aspect=fixed;pointerEvents=1;shape=mxgraph.aws4.generic_database;strokeWidth=3;" vertex="1" parent="1">
          <mxGeometry x="179.99" y="604.07" width="130.01" height="171.86" as="geometry" />
        </mxCell>
        <mxCell id="BL32pnbhM_nZfT4XRRgJ-13" value="" style="sketch=0;outlineConnect=0;fontColor=#232F3E;gradientColor=none;fillColor=#FFB570;strokeColor=none;dashed=0;verticalLabelPosition=bottom;verticalAlign=top;align=center;html=1;fontSize=12;fontStyle=0;aspect=fixed;pointerEvents=1;shape=mxgraph.aws4.gear;" vertex="1" parent="1">
          <mxGeometry x="218.97" y="663.98" width="52.04" height="52.04" as="geometry" />
        </mxCell>
        <mxCell id="BL32pnbhM_nZfT4XRRgJ-18" value="" style="edgeStyle=orthogonalEdgeStyle;html=1;endArrow=openThin;elbow=vertical;startArrow=none;endFill=0;strokeColor=#006EAF;rounded=0;fillColor=#6a00ff;strokeWidth=3;" edge="1" parent="1">
          <mxGeometry width="100" relative="1" as="geometry">
            <mxPoint x="115.99" y="680" as="sourcePoint" />
            <mxPoint x="175.99" y="680" as="targetPoint" />
          </mxGeometry>
        </mxCell>
        <mxCell id="BL32pnbhM_nZfT4XRRgJ-20" value="" style="edgeStyle=orthogonalEdgeStyle;html=1;endArrow=openThin;elbow=vertical;startArrow=none;endFill=0;strokeColor=#006EAF;rounded=0;fillColor=#6a00ff;strokeWidth=3;" edge="1" parent="1">
          <mxGeometry width="100" relative="1" as="geometry">
            <mxPoint x="176.01" y="712.03" as="sourcePoint" />
            <mxPoint x="116.00000000000001" y="712.03" as="targetPoint" />
          </mxGeometry>
        </mxCell>
        <mxCell id="BL32pnbhM_nZfT4XRRgJ-26" value="" style="endArrow=none;dashed=1;html=1;strokeWidth=2;rounded=0;hachureGap=4;fontFamily=Architects Daughter;fontSource=https%3A%2F%2Ffonts.googleapis.com%2Fcss%3Ffamily%3DArchitects%2BDaughter;fontSize=16;exitX=0.502;exitY=1;exitDx=0;exitDy=0;exitPerimeter=0;" edge="1" parent="1" source="BL32pnbhM_nZfT4XRRgJ-21" target="BL32pnbhM_nZfT4XRRgJ-12">
          <mxGeometry width="50" height="50" relative="1" as="geometry">
            <mxPoint x="243.97" y="830" as="sourcePoint" />
            <mxPoint x="243.97" y="790" as="targetPoint" />
          </mxGeometry>
        </mxCell>
        <mxCell id="BL32pnbhM_nZfT4XRRgJ-28" value="&lt;p style=&quot;line-height: 90%;&quot;&gt;&lt;font face=&quot;Times New Roman&quot; style=&quot;font-size: 19px;&quot;&gt;Data Preprocessing&lt;/font&gt;&lt;/p&gt;" style="text;html=1;strokeColor=none;fillColor=none;align=center;verticalAlign=middle;whiteSpace=wrap;rounded=0;fontSize=19;fontFamily=Architects Daughter;fontStyle=1;labelBackgroundColor=none;spacing=1;" vertex="1" parent="1">
          <mxGeometry x="177" y="700" width="135" height="63.98" as="geometry" />
        </mxCell>
        <mxCell id="BL32pnbhM_nZfT4XRRgJ-30" value="" style="swimlane;startSize=0;hachureGap=4;fontFamily=Architects Daughter;fontSource=https%3A%2F%2Ffonts.googleapis.com%2Fcss%3Ffamily%3DArchitects%2BDaughter;fontSize=20;strokeWidth=2;swimlaneLine=0;" vertex="1" parent="1">
          <mxGeometry x="370" y="590" width="200" height="200" as="geometry">
            <mxRectangle x="380" y="590" width="50" height="40" as="alternateBounds" />
          </mxGeometry>
        </mxCell>
        <mxCell id="BL32pnbhM_nZfT4XRRgJ-31" value="" style="sketch=0;points=[[0,0,0],[0.25,0,0],[0.5,0,0],[0.75,0,0],[1,0,0],[0,1,0],[0.25,1,0],[0.5,1,0],[0.75,1,0],[1,1,0],[0,0.25,0],[0,0.5,0],[0,0.75,0],[1,0.25,0],[1,0.5,0],[1,0.75,0]];outlineConnect=0;fillColor=#ffe6cc;strokeColor=#d79b00;dashed=0;verticalLabelPosition=bottom;verticalAlign=top;align=center;html=1;fontSize=12;fontStyle=0;aspect=fixed;shape=mxgraph.aws4.resourceIcon;resIcon=mxgraph.aws4.machine_learning;hachureGap=4;jiggle=2;curveFitting=1;fontFamily=Architects Daughter;fontSource=https%3A%2F%2Ffonts.googleapis.com%2Fcss%3Ffamily%3DArchitects%2BDaughter;" vertex="1" parent="BL32pnbhM_nZfT4XRRgJ-30">
          <mxGeometry x="56" y="56" width="88" height="88" as="geometry" />
        </mxCell>
        <mxCell id="BL32pnbhM_nZfT4XRRgJ-33" value="&lt;font size=&quot;1&quot; face=&quot;Times New Roman&quot;&gt;&lt;b style=&quot;font-size: 19px;&quot;&gt;Model Building and Hyperparameter tuning&lt;/b&gt;&lt;/font&gt;" style="text;html=1;strokeColor=none;fillColor=none;align=center;verticalAlign=middle;whiteSpace=wrap;rounded=0;fontSize=20;fontFamily=Architects Daughter;" vertex="1" parent="BL32pnbhM_nZfT4XRRgJ-30">
          <mxGeometry x="10" y="140" width="180" height="75.93" as="geometry" />
        </mxCell>
      </root>
    </mxGraphModel>
  </diagram>
</mxfile>
